<svg viewBox="0 0 24 24" xmlns="http://www.w3.org/2000/svg">
  <path fill="#000000" d="M23.4,17.8c0-0.6-1.6-0.2-1.7-0.6s1.3-0.8,1.2-1.1c0-0.1-1.9,0.2-2-0.1c0-0.1,0.2-0.5,0.5-0.8c0.1-0.1,0.1-0.2,0-0.3c-0.1-0.1-0.1-0.1-0.2-0.1c-0.6,0.1-1.1,0.5-1.5,0.9c0,0,0,0,0,0c-0.2-0.1-0.4-0.3-0.6-0.4c-0.4-0.3-0.8-0.7-0.9-1.2c0.8-1.2,1.4-2.6,1.6-4.1c0.4-1.4,1.2-2.6,2.3-3.5l0,0c0.2-0.2,1.1-1,1-1.7c-0.1-0.6-1-0.7-1.6-0.8c0.4-0.6,0.4-1.4,0.1-2c-0.5-0.7-2-0.8-3.4-0.6c-0.3-0.6-0.9-0.9-1.5-0.8c-0.8,0.2-1.3,0.9-1.3,1.7c-1.1,0.5-2.1,1.4-2.9,2.3c-0.5,0.6-0.5,0.4-1.3,0.9c-0.3,0.2-0.7,0.4-1.1,0.5c0,0-3,0.1-4.6,1.8c-0.1-1-0.4-1.8-1-2C3.4,5.6,1.8,7.4,1.1,10s-0.5,5,0.6,5.3c0.2,0.1,0.4,0,0.6,0c-0.1,0.5,0,1,0.4,1.4C3,17,3.5,17.2,4,17.1c0,1.2,1.3,2.6,3.1,3.6c1.2,0.7,2.6,0.9,4,0.7c1.4,0.4,2.8,1.1,4,1.9c0.1,0.1,0.3,0.1,0.4-0.1c0-0.1,0.1-0.1,0-0.2c0,0,0,0,0-0.1c-0.2-0.5-2-1.5-1.5-1.5c0.8,0,1.6,0,2.4,0.2c0.1,0,0.3-0.1,0.3-0.2c0-0.1,0-0.2-0.1-0.3c-0.7-0.5-1.5-0.8-2.4-0.8c-0.4,0,0.7-0.4,1.6-0.6c0.1,0,0.2-0.2,0.2-0.3c0-0.1-0.1-0.1-0.2-0.2c-0.5-0.1-0.9-0.2-1.4-0.2c0.1-0.4,0.1-0.7,0-1.1c0.6-0.2,1.1-0.5,1.5-0.9c0.1,0.1,0.2,0.1,0.3,0.2l0.3,0.3c0.5,0.5,1.1,0.8,1.7,0.9c0.3,0.1,0.7,0.1,1,0c0,0.2,0.2,0.7,1.2,0.5c0.4-0.2,0.8-0.3,1.3-0.4C23.1,18.2,23.4,18.1,23.4,17.8z M14,16.8c-0.3-0.8-0.9-1.3-1.7-1.7C12.2,15.1,12,15,11.8,15c0.9,0,1.8-0.6,2.2-1.4c0,0.1,0.1,0.2,0.1,0.3c-0.1,0.4,0,0.9,0.1,1.3c0.1,0.4,0.4,0.8,0.7,1.1C14.7,16.6,14.4,16.7,14,16.8z M20.9,5.1L20.9,5.1c0.1,0,0.2,0,0.3,0c0.3,0,0.5,0.1,0.5,0.2c0,0.1,0,0.2-0.1,0.4c-0.2,0.2-0.4,0.3-0.7,0.4c-0.1,0-0.2,0.1-0.3,0.1c0.1-0.3,0.2-0.6,0.2-0.9C20.9,5.2,20.9,5.1,20.9,5.1z M18.3,2.9c0.8,0,1.4,0.6,1.4,1.4c0,0.8-0.6,1.4-1.4,1.4c-0.8,0-1.4-0.6-1.4-1.4c0,0,0,0,0,0C16.8,3.6,17.5,2.9,18.3,2.9C18.3,2.9,18.3,2.9,18.3,2.9z M18.1,11.8c-0.2-0.6-0.5-1-1-1.4c-0.2-0.1-0.2-0.4-0.1-0.5c0.2-0.5,0.4-1.1,0.7-1.5c0.3-0.4,0.7-0.8,1.2-1.1c0.1,0,0.1-0.1,0.2,0c0.1,0,0.3,0,0.4,0c0.3,0,0.5-0.1,0.7-0.3c0,0,0,0,0,0c0.1,0,0.2,0,0.4-0.1c0.3-0.1-1.2,1.2-1.5,2.8C18.8,11,18.2,12.2,18.1,11.8z"/>
  <path fill="#000000" d="M18.2,5.1c0.4,0,0.7-0.3,0.7-0.7c0-0.4-0.3-0.7-0.7-0.7c0,0.1,0,0.1,0,0.2c0,0.4-0.3,0.7-0.7,0.7h0C17.6,4.9,17.9,5.1,18.2,5.1z"/>
</svg>
